Coordinates
version=1
nRows=9
nColumns=24
inDegrees=yes

Units are S.I. units (second, meters, Newtons, ...)
Angles are in degrees.

endheader
time	pelvis_tilt	pelvis_list	pelvis_rotation	pelvis_tx	pelvis_ty	pelvis_tz	hip_flexion_r	hip_adduction_r	hip_rotation_r	knee_angle_r	ankle_angle_r	subtalar_angle_r	mtp_angle_r	hip_flexion_l	hip_adduction_l	hip_rotation_l	knee_angle_l	ankle_angle_l	subtalar_angle_l	mtp_angle_l	lumbar_extension	lumbar_bending	lumbar_rotation
      0.75800000	     -0.69230808	     -5.60357978	      6.26023033	     -0.40927369	      1.03029461	      0.30938154	     10.16963204	     10.38319362	     -3.66055638	    -10.44893828	      2.75419002	     -9.94207359	      7.10431253	     18.91892378	     -7.95673071	     -2.64213097	    -66.47094677	     -0.46480875	     -2.66015125	      3.64290554	     -5.56753818	      3.72044835	      0.11970286
      0.76216667	     -0.71974488	     -5.44989825	      6.25015778	     -0.40419042	      1.03099951	      0.30959247	      9.74515234	     10.27884735	     -3.56852177	    -10.21810937	      2.86560348	     -9.91231995	      7.08682453	     19.45754261	     -7.77989795	     -2.68127622	    -65.99801822	      0.00143498	     -2.97865557	      3.62470716	     -5.59139041	      3.51076377	      0.17639072
      0.76633333	     -0.72234681	     -5.28087343	      6.23754587	     -0.39911761	      1.03175488	      0.30980361	      9.28198806	     10.16248970	     -3.44983478	     -9.96633736	      2.97894807	     -9.87661690	      7.03541733	     19.94092316	     -7.58120689	     -2.71967933	    -65.43332461	      0.38541240	     -3.32857935	      3.56373251	     -5.66034529	      3.27550320	      0.28472668
      0.77050000	     -0.74641865	     -5.12970574	      6.23388117	     -0.39404201	      1.03243915	      0.30997148	      8.85172070	     10.05480530	     -3.38839027	     -9.72548894	      3.06858755	     -9.83292904	      7.01036735	     20.43519420	     -7.39099062	     -2.74600077	    -64.81146558	      0.84987698	     -3.61584127	      3.54002649	     -5.69116092	      3.07690884	      0.31656042
      0.77466667	     -0.72851341	     -4.95418730	      6.22339741	     -0.38896886	      1.03320488	      0.31014941	      8.36008845	      9.92923458	     -3.28499271	     -9.45942297	      3.17671685	     -9.77625701	      6.94823185	     20.84711877	     -7.17367208	     -2.77830032	    -64.09037743	      1.20864556	     -3.92915075	      3.47212601	     -5.78423767	      2.84896893	      0.38563433
      0.77883333	     -0.72206191	     -4.77921639	      6.20844587	     -0.38392377	      1.03392178	      0.31030999	      7.89234675	      9.79912254	     -3.20484717	     -9.21201938	      3.26951656	     -9.72459847	      6.89265324	     21.25137795	     -6.94943704	     -2.80940020	    -63.30633623	      1.60648917	     -4.19921714	      3.41533235	     -5.86788610	      2.63139072	      0.42772849
      0.78300000	     -0.74086271	     -4.60648872	      6.18795406	     -0.37886159	      1.03457487	      0.31047335	      7.45441854	      9.66727657	     -3.13038569	     -8.97095202	      3.35778662	     -9.67031881	      6.85238783	     21.65838098	     -6.72058294	     -2.83883338	    -62.45349024	      2.00218527	     -4.44674757	      3.37618740	     -5.91753565	      2.40976870	      0.45721178
      0.78716667	     -0.69203747	     -4.42617415	      6.16976010	     -0.37380414	      1.03532924	      0.31062896	      6.92647782	      9.53597499	     -3.04005330	     -8.69387069	      3.46181848	     -9.59967707	      6.78370012	     21.96079372	     -6.48909291	     -2.86956405	    -61.51473259	      2.32684083	     -4.69837332	      3.30503640	     -6.04483979	      2.17936675	      0.51402136
      0.79133333	     -0.72352041	     -4.25395011	      6.13592072	     -0.36877646	      1.03591151	      0.31078729	      6.51399058	      9.40074300	     -2.96919127	     -8.47071694	      3.54238193	     -9.55009724	      6.74105471	     22.33279899	     -6.25039011	     -2.89448022	    -60.52543928	      2.70590122	     -4.89377573	      3.26456275	     -6.08881904	      1.95945961	      0.53883919
